Coordinates
version=1
nRows=11
nColumns=63
inDegrees=yes

Units are S.I. units (second, meters, Newtons, ...)
If the header above contains a line with 'inDegrees', this indicates whether rotational values are in degrees (yes) or radians (no).

endheader
time	pelvis_tilt	pelvis_list	pelvis_rotation	pelvis_tx	pelvis_ty	pelvis_tz	hip_flexion_r	hip_adduction_r	hip_rotation_r	knee_angle_r	knee_angle_r_beta	ankle_angle_r	subtalar_angle_r	mtp_angle_r	hip_flexion_l	hip_adduction_l	hip_rotation_l	knee_angle_l	knee_angle_l_beta	ankle_angle_l	subtalar_angle_l	mtp_angle_l	L5_S1_Flex_Ext	L5_S1_Lat_Bending	L5_S1_axial_rotation	L4_L5_Flex_Ext	L4_L5_Lat_Bending	L4_L5_axial_rotation	L3_L4_Flex_Ext	L3_L4_Lat_Bending	L3_L4_axial_rotation	L2_L3_Flex_Ext	L2_L3_Lat_Bending	L2_L3_axial_rotation	L1_L2_Flex_Ext	L1_L2_Lat_Bending	L1_L2_axial_rotation	L1_T12_Flex_Ext	L1_T12_Lat_Bending	L1_T12_axial_rotation	Abs_r3	Abs_r2	Abs_r1	Abs_t1	Abs_t2	neck_flexion	neck_bending	neck_rotation	arm_flex_r	arm_add_r	arm_rot_r	elbow_flex_r	pro_sup_r	wrist_flex_r	wrist_dev_r	arm_flex_l	arm_add_l	arm_rot_l	elbow_flex_l	pro_sup_l	wrist_flex_l	wrist_dev_l
      1.39534884	      8.64335910	     -9.35632985	     79.57944760	      0.22215500	      0.92315514	      0.54839302	     17.95106300	      4.70532287	      4.02331448	     33.91700368	      0.59196339	     36.27726642	      5.98832396	      0.00000000	      6.80024325	     -9.02981923	    -25.92708437	     16.72156538	      0.29184637	     41.36544375	     16.33133881	      0.00000000	     -0.46814899	      0.33516396	     -0.95875688	     -0.86939948	      0.44576806	     -1.01867918	     -0.76912197	      0.81491765	     -1.01867918	     -0.53504748	      0.81491765	     -0.83891227	     -0.43472315	      0.68346634	     -0.77898996	     -0.26750033	      0.51916897	     -0.71906766	     -3.34394139	      3.79144172	     -5.33231813	      0.00000000	      0.00000000	     19.61505416	      2.86914006	     -0.53576733	     84.79236866	    -18.14385637	    149.71382231	      0.11487529	      1.09447662	    -69.50670831	    -21.73446750	     23.38654476	     -6.42356940	    143.22502268	      0.23758330	      1.34435095	    -32.03213514	    -21.39152268
      1.41860465	     11.34967118	     -8.53300381	     80.88346688	      0.21244619	      0.92639844	      0.54816547	     15.98108883	      6.06571273	      1.22100853	     32.25592551	      0.56297210	     34.94404251	      7.61328738	      0.00000000	      5.99508771	    -10.91786603	    -23.57620724	     16.90067741	      0.29497247	     41.23378704	     14.73402313	      0.00000000	     -0.56331580	      0.75069076	     -1.33432105	     -1.04613378	      0.99841871	     -1.41771612	     -0.92547153	      1.82522951	     -1.41771612	     -0.64381363	      1.82522951	     -1.16753092	     -0.52309505	      1.53080860	     -1.08413585	     -0.32187865	      1.16281999	     -1.00074079	     -4.02370844	      8.49196401	     -7.42109339	      0.00000000	      0.00000000	     15.96666233	     -0.54521662	      1.67672344	     86.69059626	    -18.84045893	    147.67159153	      0.09868369	      0.93470345	    -69.69273732	    -23.31359168	     26.82792153	     -3.69035082	    145.18589028	      0.17622395	      1.34214280	    -53.63646497	    -22.49146678
      1.44186047	     14.23442267	     -7.16201346	     81.99082638	      0.20106407	      0.93085273	      0.54888658	     13.44504696	      7.56966843	     -1.44292017	     30.37851742	      0.53020515	     33.10034052	      9.49572199	      0.00000000	      4.79485549	    -12.67888552	    -19.84502754	     17.10662684	      0.29856696	     40.81676206	     11.20764655	      0.00000000	     -0.69128578	      1.17848960	     -1.50895718	     -1.28378681	      1.56739116	     -1.60326701	     -1.13571340	      2.86537960	     -1.60326701	     -0.79007051	      2.86537960	     -1.32033754	     -0.64192797	      2.40317598	     -1.22602771	     -0.39500069	      1.82548038	     -1.13171789	     -4.93778517	     13.33131000	     -8.39236717	      0.00000000	      0.00000000	     11.46556182	     -4.52271102	      1.31772836	     88.54496981	    -20.53782520	    147.16812898	      0.08391821	      0.86514902	    -69.78540448	    -24.02222695	     31.81031103	     -0.66615212	    147.37561527	      0.12881170	      1.23158511	    -69.10697553	    -21.89918659
      1.46511628	     17.43825270	     -4.88361212	     82.56292194	      0.18789105	      0.93634411	      0.55283008	     10.26794966	      9.42591973	     -3.51970435	     28.70571137	      0.50100918	     30.75149622	     11.26325027	      0.00000000	      2.94467273	    -14.83506458	    -17.36051587	     17.94590756	      0.31321517	     40.77326506	      8.65086716	      0.00000000	     -0.89972629	      1.60906338	     -1.18252235	     -1.67088169	      2.14005429	     -1.25643000	     -1.47816032	      3.91227670	     -1.25643000	     -1.02829718	      3.91227670	     -1.03470706	     -0.83548583	      3.28120204	     -0.96079941	     -0.51410360	      2.49243917	     -0.88689176	     -6.42665491	     18.20204674	     -6.57683456	      0.00000000	      0.00000000	      6.13046588	     -8.50864661	     -3.22365851	     90.86010913	    -24.45388915	    148.07205888	      0.07089716	      0.78580078	    -69.84098319	    -24.34540057	     39.07094256	      3.87980741	    147.47355909	      0.09875619	      0.97368343	    -69.67206539	    -23.38794952
      1.48837209	     20.43173725	     -2.21399317	     83.66579162	      0.17405178	      0.93955876	      0.55959979	      7.27493643	     10.98413007	     -6.33377198	     27.70029519	      0.48346135	     28.94639978	     13.42395162	      0.00000000	      1.69577711	    -16.13452129	     -9.40638447	     19.52184277	      0.34072043	     40.12197613	     -0.15741450	      0.00000000	     -1.15458025	      1.96313932	     -0.95572538	     -2.14417097	      2.61097530	     -1.01545822	     -1.89685988	      4.77317695	     -1.01545822	     -1.31956976	      4.77317695	     -0.83625971	     -1.07214322	      4.00323370	     -0.77652687	     -0.65972715	      3.04090281	     -0.71679404	     -8.24705123	     22.20742463	     -5.31545787	      0.00000000	      0.00000000	      1.56698565	    -10.55477493	     -9.06335551	     93.75615277	    -27.88508151	    149.64522272	      0.06049138	      0.69422523	    -69.87546348	    -24.50369589	     47.35366275	      8.75109954	    147.90238311	      0.08131268	      0.83925106	    -69.79256481	    -23.94718186
      1.51162791	     23.16792592	      0.64464681	     83.88680418	      0.16348599	      0.94033834	      0.56773999	      4.50316635	     12.70845507	     -7.63585768	     27.48663063	      0.47973220	     27.89728684	     14.62325559	      0.00000000	      0.22122192	    -17.74233565	     -5.21769499	     21.80562779	      0.38058000	     40.42143453	     -5.22970522	      0.00000000	     -1.46485313	      2.23879941	     -0.76953730	     -2.72037874	      2.97760321	     -0.81763338	     -2.40660720	      5.44341688	     -0.81763338	     -1.67418064	      5.44341688	     -0.67334514	     -1.36026262	      4.56535975	     -0.62524906	     -0.83701708	      3.46790028	     -0.57715298	    -10.46329941	     25.32574665	     -4.27993562	      0.00000000	      0.00000000	     -2.18109151	    -12.55396070	    -14.79617192	     96.81686390	    -29.11976672	    152.32232345	      0.05255464	      0.61922331	    -69.89790070	    -24.59415799	     56.12402031	     12.86153036	    148.20265580	      0.07018222	      0.76377509	    -69.84325079	    -24.23779808
      1.53488372	     25.38818780	      3.52490132	     84.03433971	      0.15695182	      0.93872402	      0.57587651	      1.96617056	     14.22729699	     -8.42217250	     27.78165023	      0.48488127	     27.79401905	     15.24087947	      0.00000000	     -1.05714683	    -19.17369697	     -2.10629242	     24.62521906	      0.42979115	     41.19332020	     -8.91949996	      0.00000000	     -1.79658109	      2.42473460	     -0.91580131	     -3.33643075	      3.22489702	     -0.97303889	     -2.95160308	      5.89549971	     -0.97303889	     -2.05331253	      5.89549971	     -0.80132615	     -1.66830520	      4.94451880	     -0.74408856	     -1.02656644	      3.75591390	     -0.68685098	    -12.83279909	     27.42908277	     -5.09341214	      0.00000000	      0.00000000	     -5.17971322	    -15.08807106	    -18.60799266	     99.32525269	    -26.71007308	    155.93325314	      0.04683223	      0.56830168	    -69.91179266	    -24.64765616	     64.94401007	     14.97399499	    148.39633301	      0.06155440	      0.72363380	    -69.87217497	    -24.42121115
      1.55813953	     26.50782311	      6.49052013	     83.72283321	      0.15651880	      0.93651798	      0.58320207	     -0.50270420	     15.04052330	     -8.21250224	     28.56107591	      0.49848481	     28.64048502	     15.18794409	      0.00000000	     -2.75038715	    -19.98474452	     -1.11853310	     27.24941426	      0.47559200	     42.22986062	    -10.46858670	      0.00000000	     -2.15295634	      2.43784819	     -1.26341028	     -3.99825522	      3.24233809	     -1.34237342	     -3.53709197	      5.92738409	     -1.34237342	     -2.46061380	      5.92738409	     -1.10548399	     -1.99923526	      4.97126003	     -1.02652085	     -1.23019925	      3.77622684	     -0.94755771	    -15.37835185	     27.57742628	     -7.02670894	      0.00000000	      0.00000000	     -7.56385654	    -17.84464562	    -20.28111229	    100.38553031	    -20.98368515	    159.22688954	      0.04297072	      0.53603020	    -69.91986571	    -24.67695730	     72.95411653	     14.92675763	    149.68017338	      0.05438945	      0.68342087	    -69.89154209	    -24.52976821
      1.58139535	     26.54204369	      9.37687073	     83.77894764	      0.16023280	      0.93452174	      0.58944461	     -2.73696160	     15.08637791	     -8.02063673	     29.52007847	      0.51522256	     30.00821538	     14.76205009	      0.00000000	     -4.39046487	    -19.97631638	     -0.26979802	     29.48055241	      0.51453270	     43.02903780	    -11.43888021	      0.00000000	     -2.48239176	      2.30660706	     -1.73500060	     -4.61004974	      3.06778739	     -1.84343814	     -4.07832142	      5.60828440	     -1.84343814	     -2.83712554	      5.60828440	     -1.51812552	     -2.30514899	      4.70363311	     -1.40968799	     -1.41843865	      3.57293433	     -1.30125045	    -17.73147611	     26.09280036	     -9.64955283	      0.00000000	      0.00000000	     -9.03322539	    -19.91681896	    -20.31953043	    100.19469373	    -13.82058038	    161.44651673	      0.04062960	      0.51904768	    -69.92447528	    -24.69104918	     79.49541657	     14.06665832	    151.99311236	      0.04905460	      0.66802911	    -69.90543087	    -24.60311021
      1.60465116	     25.88060896	     11.97069035	     83.96950823	      0.16595004	      0.93332610	      0.59404765	     -4.71081372	     14.62069176	     -7.78348721	     30.44679888	      0.53139689	     31.48895991	     14.21768027	      0.00000000	     -5.99916228	    -19.43603205	      0.25337877	     31.12481909	      0.54323057	     43.53279390	    -11.80541171	      0.00000000	     -2.76521755	      2.09098002	     -2.13651073	     -5.13528552	      2.78100342	     -2.27004265	     -4.54297592	      5.08400881	     -2.27004265	     -3.16036714	      5.08400881	     -1.86944689	     -2.56778102	      4.26392645	     -1.73591497	     -1.58004531	      3.23892804	     -1.60238305	    -19.75167247	     23.65358414	    -11.88263175	      0.00000000	      0.00000000	     -9.72139135	    -20.75941277	    -19.54867868	     99.27182031	     -7.17900570	    162.38363112	      0.03912125	      0.50930452	    -69.92767552	    -24.69832253	     84.46305893	     13.53885461	    155.62085131	      0.04520486	      0.65611924	    -69.91615279	    -24.65428958
      1.62790698	     25.24349360	     14.06840417	     84.02957596	      0.17104342	      0.93214226	      0.59647864	     -6.35116031	     14.13483246	     -7.53065827	     31.33271080	      0.54685897	     32.86457024	     13.82053806	      0.00000000	     -7.41189862	    -18.87146697	      0.61493696	     32.48092534	      0.56689909	     44.09216672	    -12.05938608	      0.00000000	     -2.99846083	      1.88774701	     -2.43938424	     -5.56844160	      2.51070353	     -2.59184576	     -4.92617129	      4.58986809	     -2.59184576	     -3.42694088	      4.58986809	     -2.13446121	     -2.78437072	      3.84949371	     -1.98199970	     -1.71332052	      2.92412012	     -1.82953818	    -21.41770584	     21.35457175	    -13.56712335	      0.00000000	      0.00000000	     -9.66317263	    -20.24230893	    -18.11306707	     98.40047480	     -1.89862634	    162.27440890	      0.03809865	      0.51019743	    -69.93053180	    -24.70939462	     88.29015918	     13.68372569	    159.35358613	      0.04229896	      0.65390992	    -69.92456344	    -24.69279570
